<?xml version="1.0" standalone="no"?>
<!DOCTYPE svg PUBLIC "-//W3C//DTD SVG 20010904//EN"
 "http://www.w3.org/TR/2001/REC-SVG-20010904/DTD/svg10.dtd">
<svg version="1.0" xmlns="http://www.w3.org/2000/svg"
 width="300.000000pt" height="300.000000pt" viewBox="0 0 300.000000 300.000000"
 preserveAspectRatio="xMidYMid meet">
<metadata>
Created by potrace 1.10, written by Peter Selinger 2001-2011
</metadata>
<g transform="translate(0.000000,300.000000) scale(0.100000,-0.100000)"
fill="#000000" stroke="none">
<path d="M2605 2836 c-173 -46 -2456 -914 -2516 -956 -43 -31 -62 -75 -56
-127 9 -80 31 -97 329 -253 150 -78 314 -167 364 -196 152 -89 236 -198 310
-404 35 -97 48 -117 90 -130 41 -14 85 -2 121 32 36 34 38 74 8 159 l-26 74
208 204 c114 112 377 366 583 564 206 199 448 433 538 521 89 88 162 155 162
149 0 -17 -50 -156 -146 -406 -85 -220 -265 -708 -455 -1236 -55 -151 -104
-280 -110 -288 -6 -7 -17 -13 -24 -13 -14 0 -275 208 -275 219 0 8 212 271
427 528 186 223 193 234 193 294 0 41 -4 51 -31 73 -44 37 -108 36 -148 -1
-41 -38 -430 -486 -680 -782 -279 -331 -254 -305 -277 -297 -10 4 -89 86 -174
182 -85 96 -202 224 -260 283 -86 90 -112 110 -142 115 -48 9 -108 -8 -136
-36 -43 -46 -45 -146 -5 -191 11 -12 131 -148 268 -302 315 -356 332 -374 380
-396 54 -25 92 -24 153 7 45 22 68 47 174 185 67 87 124 159 127 159 4 -1 69
-53 146 -116 77 -64 157 -124 177 -135 86 -44 195 -30 255 34 45 47 72 107
158 357 42 124 174 500 292 835 307 871 344 982 350 1070 5 67 3 80 -21 130
-53 107 -159 137 -331 91z m-35 -242 c0 -18 -21 -37 -405 -379 -374 -333 -667
-600 -879 -800 l-169 -159 -25 34 c-75 102 -143 152 -398 292 -137 76 -255
141 -263 146 -8 5 -12 15 -9 23 7 17 986 411 2053 827 94 36 95 37 95 16z"/>
</g>
</svg>
